<svg width="180" height="180" viewBox="0 0 180 180" fill="none" xmlns="http://www.w3.org/2000/svg">
  <defs>
    <linearGradient id="bgGrad" x1="0%" y1="0%" x2="100%" y2="100%">
      <stop offset="0%" style="stop-color:#EBF8FF" />
      <stop offset="100%" style="stop-color:#DBEAFE" />
    </linearGradient>
    <linearGradient id="logoGradient" x1="0%" y1="0%" x2="100%" y2="100%">
      <stop offset="0%" style="stop-color:#3B82F6" />
      <stop offset="50%" style="stop-color:#1D4ED8" />
      <stop offset="100%" style="stop-color:#1E40AF" />
    </linearGradient>
    <linearGradient id="accentGradient" x1="0%" y1="0%" x2="100%" y2="100%">
      <stop offset="0%" style="stop-color:#10B981" />
      <stop offset="100%" style="stop-color:#059669" />
    </linearGradient>
    <filter id="shadow" x="-20%" y="-20%" width="140%" height="140%">
      <feDropShadow dx="0" dy="4" stdDeviation="8" flood-color="#000000" flood-opacity="0.1"/>
    </filter>
  </defs>
  
  <!-- Rounded rectangle background -->
  <rect width="180" height="180" rx="28" ry="28" fill="url(#bgGrad)"/>
  
  <!-- Main globe with shadow -->
  <g filter="url(#shadow)">
    <circle cx="90" cy="90" r="65" fill="url(#logoGradient)" opacity="0.95"/>
  </g>
  
  <!-- Continents/Land masses -->
  <path d="M40 70 C55 65, 70 68, 90 73 C110 78, 130 75, 140 70" stroke="white" stroke-width="6" fill="none" opacity="0.8"/>
  <path d="M35 105 C50 100, 65 103, 85 108 C105 113, 125 110, 145 105" stroke="white" stroke-width="4.5" fill="none" opacity="0.6"/>
  <ellipse cx="65" cy="55" rx="12" ry="6" fill="white" opacity="0.4"/>
  <ellipse cx="115" cy="125" rx="10" ry="5" fill="white" opacity="0.4"/>
  
  <!-- Graduation cap on globe -->
  <g transform="translate(75, 50)">
    <polygon points="0,20 20,10 20,20 0,30" fill="url(#accentGradient)"/>
    <rect x="0" y="20" width="20" height="2.5" fill="url(#accentGradient)"/>
    <circle cx="20" cy="15" r="1.5" fill="#F59E0B"/>
    <line x1="20" y1="15" x2="26" y2="9" stroke="#F59E0B" stroke-width="1.5"/>
  </g>
  
  <!-- Flight path/Route indicators -->
  <path d="M20 90 Q90 30, 160 90" stroke="url(#accentGradient)" stroke-width="5" fill="none" opacity="0.7" stroke-dasharray="8,8"/>
  <circle cx="20" cy="90" r="6" fill="url(#accentGradient)" opacity="0.8"/>
  <circle cx="160" cy="90" r="6" fill="url(#accentGradient)" opacity="0.8"/>
  
  <!-- Location pins -->
  <g transform="translate(145, 65)">
    <path d="M6 0 C9.3 0, 12 2.7, 12 6 C12 10.5, 6 18, 6 18 S0 10.5, 0 6 C0 2.7, 2.7 0, 6 0 Z" fill="#EF4444"/>
    <circle cx="6" cy="6" r="3" fill="white"/>
  </g>
  
  <!-- Additional location pin -->
  <g transform="translate(25, 105)">
    <path d="M4 0 C6.2 0, 8 1.8, 8 4 C8 7, 4 12, 4 12 S0 7, 0 4 C0 1.8, 1.8 0, 4 0 Z" fill="#F59E0B"/>
    <circle cx="4" cy="4" r="2" fill="white"/>
  </g>
</svg>
