<svg width="32" height="32" viewBox="0 0 32 32" fill="none" xmlns="http://www.w3.org/2000/svg">
  <defs>
    <linearGradient id="grad" x1="0%" y1="0%" x2="100%" y2="100%">
      <stop offset="0%" style="stop-color:#3B82F6" />
      <stop offset="50%" style="stop-color:#1D4ED8" />
      <stop offset="100%" style="stop-color:#1E40AF" />
    </linearGradient>
    <linearGradient id="accent" x1="0%" y1="0%" x2="100%" y2="100%">
      <stop offset="0%" style="stop-color:#10B981" />
      <stop offset="100%" style="stop-color:#059669" />
    </linearGradient>
  </defs>
  
  <circle cx="16" cy="16" r="14" fill="url(#grad)"/>
  
  <!-- Continents -->
  <path d="M8 12 C10.5 11, 13 12, 16 13 C19 14, 22 13, 24 12" stroke="white" stroke-width="1.2" fill="none" opacity="0.8"/>
  <path d="M7 20 C9.5 19, 12 20, 15 21 C18 22, 21 21, 25 20" stroke="white" stroke-width="1" fill="none" opacity="0.6"/>
  <ellipse cx="12" cy="9" rx="2.5" ry="1.2" fill="white" opacity="0.4"/>
  <ellipse cx="20" cy="23" rx="2" ry="1" fill="white" opacity="0.4"/>
  
  <!-- Graduation cap -->
  <g transform="translate(13, 8)">
    <polygon points="0,5 5,2.5 5,5 0,7.5" fill="url(#accent)"/>
    <rect x="0" y="5" width="5" height="0.6" fill="url(#accent)"/>
    <circle cx="5" cy="3.75" r="0.3" fill="#F59E0B"/>
    <line x1="5" y1="3.75" x2="6.5" y2="2.5" stroke="#F59E0B" stroke-width="0.3"/>
  </g>
  
  <!-- Route -->
  <path d="M4 16 Q16 6, 28 16" stroke="url(#accent)" stroke-width="1.5" fill="none" opacity="0.7" stroke-dasharray="1.5,1.5"/>
  <circle cx="4" cy="16" r="1.2" fill="url(#accent)" opacity="0.8"/>
  <circle cx="28" cy="16" r="1.2" fill="url(#accent)" opacity="0.8"/>
  
  <!-- Location pin -->
  <g transform="translate(25, 12)">
    <path d="M1.5 0 C2.3 0, 3 0.7, 3 1.5 C3 2.6, 1.5 4.5, 1.5 4.5 S0 2.6, 0 1.5 C0 0.7, 0.7 0, 1.5 0 Z" fill="#EF4444"/>
    <circle cx="1.5" cy="1.5" r="0.7" fill="white"/>
  </g>
</svg>
