<svg width="512" height="512" viewBox="0 0 512 512" fill="none" xmlns="http://www.w3.org/2000/svg">
  <defs>
    <linearGradient id="bgGrad" x1="0%" y1="0%" x2="100%" y2="100%">
      <stop offset="0%" style="stop-color:#F8FAFC" />
      <stop offset="100%" style="stop-color:#F1F5F9" />
    </linearGradient>
    <linearGradient id="logoGradient" x1="0%" y1="0%" x2="100%" y2="100%">
      <stop offset="0%" style="stop-color:#3B82F6" />
      <stop offset="50%" style="stop-color:#1D4ED8" />
      <stop offset="100%" style="stop-color:#1E40AF" />
    </linearGradient>
    <linearGradient id="accentGradient" x1="0%" y1="0%" x2="100%" y2="100%">
      <stop offset="0%" style="stop-color:#10B981" />
      <stop offset="100%" style="stop-color:#059669" />
    </linearGradient>
    <filter id="shadow" x="-10%" y="-10%" width="120%" height="120%">
      <feDropShadow dx="0" dy="8" stdDeviation="16" flood-color="#000000" flood-opacity="0.1"/>
    </filter>
  </defs>
  
  <!-- Background -->
  <rect width="512" height="512" rx="85" ry="85" fill="url(#bgGrad)"/>
  
  <!-- Main globe with shadow -->
  <g filter="url(#shadow)">
    <circle cx="256" cy="256" r="185" fill="url(#logoGradient)" opacity="0.95"/>
  </g>
  
  <!-- Continents -->
  <path d="M112 200 C154 188, 196 194, 256 206 C316 218, 372 212, 400 200" stroke="white" stroke-width="16" fill="none" opacity="0.8"/>
  <path d="M98 296 C140 284, 182 290, 242 302 C302 314, 358 308, 414 296" stroke="white" stroke-width="13" fill="none" opacity="0.6"/>
  <ellipse cx="186" cy="154" rx="34" ry="17" fill="white" opacity="0.4"/>
  <ellipse cx="326" cy="358" rx="29" ry="14" fill="white" opacity="0.4"/>
  
  <!-- Graduation cap -->
  <g transform="translate(214, 146)">
    <polygon points="0,58 58,29 58,58 0,87" fill="url(#accentGradient)"/>
    <rect x="0" y="58" width="58" height="7.5" fill="url(#accentGradient)"/>
    <circle cx="58" cy="43.5" r="4.2" fill="#F59E0B"/>
    <line x1="58" y1="43.5" x2="75.5" y2="26.5" stroke="#F59E0B" stroke-width="4.2"/>
  </g>
  
  <!-- Route -->
  <path d="M58 256 Q256 85, 454 256" stroke="url(#accentGradient)" stroke-width="14.5" fill="none" opacity="0.7" stroke-dasharray="22.5,22.5"/>
  <circle cx="58" cy="256" r="17" fill="url(#accentGradient)" opacity="0.8"/>
  <circle cx="454" cy="256" r="17" fill="url(#accentGradient)" opacity="0.8"/>
  
  <!-- Location pins -->
  <g transform="translate(414, 186)">
    <path d="M17 0 C26.4 0, 34 7.6, 34 17 C34 29.8, 17 51, 17 51 S0 29.8, 0 17 C0 7.6, 7.6 0, 17 0 Z" fill="#EF4444"/>
    <circle cx="17" cy="17" r="8.5" fill="white"/>
  </g>
  
  <g transform="translate(72, 306)">
    <path d="M12 0 C18.6 0, 24 5.4, 24 12 C24 21, 12 36, 12 36 S0 21, 0 12 C0 5.4, 5.4 0, 12 0 Z" fill="#F59E0B"/>
    <circle cx="12" cy="12" r="6" fill="white"/>
  </g>
  
  <!-- Additional decorative elements -->
  <g opacity="0.3">
    <circle cx="420" cy="120" r="6" fill="url(#accentGradient)"/>
    <circle cx="450" cy="150" r="4" fill="url(#logoGradient)"/>
    <circle cx="480" cy="180" r="3" fill="url(#accentGradient)"/>
    <circle cx="92" cy="392" r="5" fill="url(#logoGradient)"/>
    <circle cx="62" cy="422" r="3.5" fill="url(#accentGradient)"/>
  </g>
</svg>
